<svg xmlns="http://www.w3.org/2000/svg" width="320" height="400" viewBox="0 0 320 400">
<defs><linearGradient id="g" y2="1"><stop stop-color="#38bdf8"/><stop offset=".5" stop-color="#1e3a8a"/><stop offset="1" stop-color="#0f172a"/></linearGradient></defs>
<rect width="320" height="400" fill="url(#g)"/><circle cx="250" cy="80" r="42" fill="#fef3c7" opacity=".7"/>
<g fill="#111827"><rect x="20" y="185" width="65" height="215"/><rect x="92" y="130" width="72" height="270"/><rect x="171" y="205" width="58" height="195"/><rect x="236" y="110" width="64" height="290"/></g>
<g fill="#fef08a" opacity=".8"><path d="M35 210h15v18H35zM62 210h15v18H62zM35 250h15v18H35zM62 250h15v18H62z"/><path d="M108 155h14v20h-14zM136 155h14v20h-14zM108 200h14v20h-14zM136 200h14v20h-14z"/><path d="M252 140h14v20h-14zM278 140h14v20h-14zM252 185h14v20h-14zM278 185h14v20h-14z"/></g>
</svg>